<svg fill="#000000" height="18px" width="18px" version="1.1" id="Layer_1" xmlns="http://www.w3.org/2000/svg" xmlns:xlink="http://www.w3.org/1999/xlink" 
	 viewBox="0 0 512 512" xml:space="preserve">
<g>
	<g>
		<path d="M511.891,408.603L497.17,320.28c-2.027-12.162-12.447-20.99-24.777-20.99h-47.13l-13.604-81.624
			c-2.028-12.162-12.448-20.99-24.778-20.99h-47.13l-13.604-81.624c-2.028-12.162-12.448-20.99-24.778-20.99H210.63
			c-12.331,0-22.75,8.828-24.777,20.99l-13.604,81.624h-47.13c-12.331,0-22.75,8.828-24.777,20.99L86.737,299.29H39.607
			c-12.331,0-22.75,8.828-24.777,20.99L0.109,408.603c-0.387,2.324,0.267,4.701,1.79,6.5c1.523,1.798,3.76,2.835,6.117,2.835
			h153.921c2.357,0,4.594-1.037,6.117-2.835c1.523-1.798,2.178-4.175,1.79-6.5l-14.721-88.323c-0.288-1.727-0.762-3.379-1.37-4.956
			h33.47c-0.608,1.578-1.083,3.229-1.37,4.956l-14.721,88.323c-0.387,2.324,0.267,4.701,1.79,6.5
			c1.523,1.799,3.76,2.835,6.117,2.835h153.921c2.357,0,4.594-1.037,6.117-2.835c1.523-1.798,2.178-4.175,1.79-6.5l-14.721-88.323
			c-0.288-1.727-0.762-3.379-1.37-4.956h33.47c-0.608,1.578-1.083,3.229-1.37,4.956l-14.721,88.323
			c-0.387,2.324,0.267,4.701,1.79,6.5c1.523,1.799,3.76,2.835,6.117,2.835h153.921c2.357,0,4.594-1.037,6.117-2.835
			C511.623,413.304,512.278,410.926,511.891,408.603z M201.668,117.688c0.733-4.398,4.502-7.592,8.962-7.592h90.74
			c4.459,0,8.228,3.193,8.962,7.592l13.164,78.988H188.504L201.668,117.688z M272.736,212.71c-0.608,1.578-1.083,3.229-1.37,4.956
			L257.76,299.29h-3.521l-13.604-81.624c-0.288-1.727-0.762-3.379-1.37-4.956H272.736z M17.48,401.904l13.164-78.988
			c0.733-4.398,4.502-7.592,8.962-7.592h90.741c4.46,0,8.229,3.193,8.963,7.592l13.164,78.988H17.48z M102.992,299.29l13.164-78.988
			c0.733-4.398,4.502-7.592,8.962-7.592h90.74c4.459,0,8.228,3.193,8.962,7.592l13.164,78.988H102.992z M188.504,401.904
			l13.164-78.988c0.733-4.398,4.502-7.592,8.962-7.592h90.74c4.459,0,8.228,3.193,8.962,7.592l13.164,78.988H188.504z
			 M274.014,299.29l13.165-78.988c0.733-4.398,4.502-7.592,8.962-7.592h90.74c4.461,0,8.229,3.193,8.963,7.592l13.164,78.988
			H274.014z M359.526,401.904l13.164-78.988c0.733-4.398,4.502-7.592,8.962-7.592h90.74c4.459,0,8.228,3.193,8.962,7.592
			l13.166,78.988H359.526z"/>
	</g>
</g>
</svg>