<svg fill="#000000" height="85px" width="85px" version="1.1" id="Layer_1" xmlns="http://www.w3.org/2000/svg" xmlns:xlink="http://www.w3.org/1999/xlink" viewBox="0 0 512.001 512.001" xml:space="preserve">

<g id="SVGRepo_bgCarrier" stroke-width="0"/>

<g id="SVGRepo_tracerCarrier" stroke-linecap="round" stroke-linejoin="round"/>

<g id="SVGRepo_iconCarrier"> <path d="M493.902,157.915c-134.239-140.516-337.908-144.347-475.81,0c-39.448,41.295-10.129,109.6,46.878,109.6h1.003 c-25.614,133,54.499,193.399,190.025,193.399c136.054,0,215.548-60.868,190.025-193.399h1.003c26.388,0,49.226-15.073,59.604-39.337 C517.005,203.919,512.128,176.995,493.902,157.915z M74.091,234.842h-9.121c-28.391,0-42.851-33.837-23.252-54.355 c28.279-29.601,63.576-55.244,102.625-72.642C112.104,143.239,87.686,190.206,74.091,234.842z M237.8,427.842l18.197-19.072 l18.198,19.072C262.666,428.359,249.978,428.388,237.8,427.842z M255.997,329.282l-32.995-34.58h65.989L255.997,329.282z M315.114,423.395l-42.78-44.836v-19.067l48.42-50.747c16.741-17.546,4.285-46.718-19.996-46.718h-89.523 c-24.25,0-36.759,29.15-19.996,46.718l48.42,50.747v19.067l-42.781,44.836c-93.493-17.123-118.585-77.347-94.652-168.052 c14.409-54.661,48.255-117.382,93.9-150.367c39.744-28.719,79.972-28.736,119.74,0c45.557,32.92,79.436,95.499,93.9,150.367 c0.109,0.413,0.236,0.817,0.376,1.214C435.845,356.039,399.59,407.924,315.114,423.395z M447.025,234.842h-9.121 c-13.698-44.973-38.318-91.937-70.252-126.997c39.034,17.392,74.335,43.029,102.624,72.642 C489.887,201.015,475.401,234.842,447.025,234.842z M194.709,213.885c0.011-11.936-9.656-21.621-21.592-21.632 c-11.936-0.011-21.621,9.656-21.632,21.592c-0.011,11.936,9.656,21.621,21.592,21.632 C185.013,235.489,194.698,225.821,194.709,213.885z M359.667,214.028c0.011-11.936-9.656-21.621-21.592-21.632 c-11.936-0.011-21.621,9.656-21.632,21.592c-0.011,11.936,9.656,21.621,21.592,21.632 C349.971,235.631,359.656,225.964,359.667,214.028z"/> </g>

</svg>