<svg fill="#000000" height="85px" width="85px" version="1.1" id="Layer_1" xmlns="http://www.w3.org/2000/svg" xmlns:xlink="http://www.w3.org/1999/xlink" viewBox="0 0 512 512" xml:space="preserve">

<g id="SVGRepo_bgCarrier" stroke-width="0"/>

<g id="SVGRepo_tracerCarrier" stroke-linecap="round" stroke-linejoin="round"/>

<g id="SVGRepo_iconCarrier"> <g> <g> <path d="M495.304,473.043h-14.296l24.232-60.582c3.425-8.562-0.74-18.278-9.301-21.702c-8.563-3.429-18.278,0.738-21.702,9.299 l-20.218,50.545L270.708,114.533c-6.371-11.801-23.148-11.609-29.416,0L57.981,450.604l-20.218-50.545 c-3.425-8.559-13.14-12.728-21.702-9.299C7.499,394.183,3.335,403.9,6.76,412.462l24.232,60.582H16.696 C7.475,473.043,0,480.519,0,489.739s7.475,16.696,16.696,16.696c27.322,0,451.316,0,478.609,0c9.22,0,16.696-7.475,16.696-16.696 S504.525,473.043,495.304,473.043z M239.304,473.043h-43.028l43.028-78.884V473.043z M239.304,324.428l-81.063,148.616H83.777 L239.304,187.91V324.428z M272.696,473.043V394.16l43.028,78.884H272.696z M353.759,473.043l-81.063-148.616V187.91 l155.528,285.134H353.759z"/> </g> </g> <g> <g> <path d="M422.957,5.565c-46.03,0-83.478,37.448-83.478,83.478c0,46.03,37.448,83.478,83.478,83.478 c46.03,0,83.478-37.448,83.478-83.478S468.986,5.565,422.957,5.565z M422.957,139.13c-27.618,0-50.087-22.469-50.087-50.087 c0-27.618,22.469-50.087,50.087-50.087c27.618,0,50.087,22.469,50.087,50.087C473.043,116.661,450.574,139.13,422.957,139.13z"/> </g> </g> </g>

</svg>